# AST/ASF file generated using VICON BodyLanguage
# -----------------------------------------------
:version 1.10
:name VICON
:units
  mass 1.0
  length 0.45
  angle deg
:documentation
   .ast/.asf automatically generated from VICON data using
   VICON BodyBuilder and BodyLanguage model FoxedUp or BRILLIANT.MOD
:root
   order TX TY TZ RX RY RZ
   axis XYZ
   position 0 0 0  
   orientation 0 0 0 
:bonedata
  begin
     id 1 
     name lhipjoint
     direction 0.643822 -0.745931 0.170529 
     length 2.62041 
     axis 0 0 0  XYZ
  end
  begin
     id 2 
     name lfemur
     direction 0.34202 -0.939693 0  
     length 7.92179  
     axis 0 0 20  XYZ
    dof rx ry rz
    limits (-160.0 20.0)
           (-70.0 70.0)
           (-60.0 70.0)
  end
  begin
     id 3 
     name ltibia
     direction 0.34202 -0.939693 0   
     length 8.16326   
     axis 0 0 20   XYZ
    dof rx
    limits (-10.0 170.0)
  end
  begin
     id 4 
     name lfoot
     direction 0.0837341 -0.230058 0.969568   
     length 1.94455   
     axis -90 7.62852e-016 20   XYZ
    dof rx rz
    limits (-45.0 90.0)
           (-70.0 20.0)
  end
  begin
     id 5 
     name ltoes
     direction 1.5356e-011 -4.21695e-011 1   
     length 0.978804   
     axis -90 7.62852e-016 20   XYZ
    dof rx
    limits (-90.0 20.0)
  end
  begin
     id 6 
     name rhipjoint
     direction -0.656883 -0.73503 0.168037   
     length 2.65927  
     axis 0 0 0  XYZ 
  end
  begin
     id 7 
     name rfemur
     direction -0.34202 -0.939693 0   
     length 7.58746   
     axis 0 0 -20   XYZ
    dof rx ry rz
    limits (-160.0 20.0)
           (-70.0 70.0)
           (-70.0 60.0)
  end
  begin
     id 8 
     name rtibia
     direction -0.342117 -0.939657 0   
     length 8.27303   
     axis 0 0 -20   XYZ
    dof rx
    limits (-10.0 170.0)
 end
 begin
     id 9 
     name rfoot
     direction -0.0685862 -0.188439 0.979687   
     length 2.13088  
     axis -90 -7.62852e-016 -20   XYZ
    dof rx rz
    limits (-45.0 90.0)
           (-20.0 70.0)
  end
  begin
     id 10 
     name rtoes
     direction -1.53538e-011 -4.21514e-011 1   
     length 1.07326   
     axis -90 -7.62852e-016 -20   XYZ
    dof rx
    limits (-90.0 20.0)
  end
  begin
     id 11 
     name lowerback
     direction -0.0358974 0.997216 0.065354   
     length 1.87174   
     axis 0 0 0   XYZ
    dof rx ry rz
    limits (-20.0 45.0)
           (-30.0 30.0)
           (-30.0 30.0)
  end
  begin
     id 12 
     name upperback
     direction 0.0202028 0.998565 0.0495864   
     length 1.8684   
     axis 0 0 0   XYZ
    dof rx ry rz
    limits (-20.0 45.0)
           (-30.0 30.0)
           (-30.0 30.0)
  end
  begin
     id 13 
     name thorax
     direction 0.0366367 0.999163 0.0182199   
     length 1.87747   
     axis 0 0 0   XYZ
    dof rx ry rz
    limits (-20.0 45.0)
           (-30.0 30.0)
           (-30.0 30.0)
  end
  begin
     id 14 
     name lowerneck
     direction 0.0284381 0.999578 -0.00598196   
     length 1.84583   
     axis 0 0 0   XYZ
    dof rx ry rz
    limits (-20.0 45.0)
           (-30.0 30.0)
           (-30.0 30.0)
  end
  begin
     id 15 
     name upperneck
     direction -0.0888142 0.993333 -0.0734973   
     length 1.84467   
     axis 0 0 0   XYZ
    dof rx ry rz
    limits (-20.0 45.0)
           (-30.0 30.0)
           (-30.0 30.0)
  end
  begin
     id 16
     name head
     direction -0.0296474 0.999102 -0.0302696  
     length 1.86566  
     axis 0 0 0   XYZ
    dof rx ry rz
    limits (-20.0 45.0)
           (-30.0 30.0)
           (-30.0 30.0)
  end
  begin
     id 17 
     name lclavicle
     direction 0.933925 0.35714 -0.0153523  
     length 3.93442  
     axis 0 0 0   XYZ
    dof ry rz
    limits (-20.0 10.0)
           (0.0 20.0)
  end
  begin
     id 18 
     name lhumerus
     direction 1 -4.48967e-011 2.12044e-027   
     length 5.78174   
     axis 180 -30 -90   XYZ
    dof rx ry rz
    limits (-60.0 90.0)
           (-90.0 90.0)
           (-90.0 90.0)
  end
  begin
     id 19
     name lradius
     direction 1 -4.48972e-011 6.45701e-027   
     length 3.53992   
     axis 180 -30 -90   XYZ
    dof rx
    limits (-10.0 170.0)
  end
  begin
     id 20
     name lwrist
     direction 1 -4.48981e-011 1.70244e-026   
     length 1.76996   
     axis -1.1226e-014 90 90   XYZ
    dof ry
    limits (-180.0 0.0)
 end
  begin
     id 21 
     name lhand
     direction 1 -4.4879e-011 3.40615e-026   
     length 0.550243   
     axis -2.17265e-014 90 90   XYZ
    dof rx rz
    limits (-90.0 90.0)
           (-45.0 45.0)
  end
  begin
     id 22 
     name lfingers
     direction 1 -4.49029e-011 6.80911e-026   
     length 0.44362   
     axis -4.34526e-014 90 90   XYZ
    dof rx
    limits (0.0 90.0)
  end
  begin
     id 23
     name lthumb
     direction 0.707107 -6.34923e-011 0.707107   
     length 0.636952   
     axis -90 45 -1.62303e-014   XYZ
    dof rx rz
    limits (-45.0 45.0)
           (-45.0 45.0)
  end
  begin
     id 24 
     name rclavicle
     direction -0.950832 0.305106 0.0531883   
     length 3.96125  
     axis 0 0 0   XYZ 
    dof ry rz
    limits (-10.0 20.0)
           (-20.0 0.0)
  end
  begin
     id 25 
     name rhumerus
     direction -1 -4.48961e-011 -6.07392e-030  
     length 5.79352   
     axis 180 30 90   XYZ
    dof rx ry rz
    limits (-90.0 60.0)
           (-90.0 90.0)
           (-90.0 90.0)
  end
  begin
     id 26 
     name rradius
     direction -1 -4.48964e-011 5.97548e-027   
     length 3.37081   
     axis 180 30 90   XYZ
    dof rx
    limits (-10.0 170.0)
  end
  begin
     id 27 
     name rwrist
     direction -1 -4.49021e-011 1.7023e-026   
     length 1.68541   
     axis -1.1226e-014 -90 -90   XYZ
    dof ry
    limits (-180.0 0.0)
  end
  begin
     id 28
     name rhand
     direction -1 -4.48867e-011 3.40563e-026   
     length 0.679827   
     axis -2.17265e-014 -90 -90   XYZ
    dof rx rz
    limits (-90.0 90.0)
           (-45.0 45.0)
  end
  begin
     id 29
     name rfingers
     direction -1 -4.49024e-011 6.80917e-026   
     length 0.548094   
     axis -4.34526e-014 -90 -90   XYZ
    dof rx
    limits (0.0 90.0)
  end
  begin
     id 30
     name rthumb
     direction -0.707107 -6.3488e-011 0.707107   
     length 0.786956   
     axis -90 -45 1.62303e-014   XYZ
    dof rx rz
    limits (-45.0 45.0)
           (-45.0 45.0)
  end
:hierarchy
  begin
    root lhipjoint rhipjoint lowerback
    lhipjoint lfemur
    lfemur ltibia
    ltibia lfoot
    lfoot ltoes
    rhipjoint rfemur
    rfemur rtibia
    rtibia rfoot
    rfoot rtoes
    lowerback upperback
    upperback thorax
    thorax lowerneck lclavicle rclavicle
    lowerneck upperneck
    upperneck head
    lclavicle lhumerus
    lhumerus lradius
    lradius lwrist
    lwrist lhand lthumb
    lhand lfingers
    rclavicle rhumerus
    rhumerus rradius
    rradius rwrist
    rwrist rhand rthumb
    rhand rfingers
  end

#!OML:ASF H:\Terrain\Patient Classification 1\PaulMetrics\Match1Take2\PaulMetrics.ASF
:FULLY-SPECIFIED
:DEGREES
366
root -4.16245 18.04 -21.7857 14.2045 -24.3171 -0.698262
lowerback -4.66796 0.0703956 -3.35002
upperback -6.20862 0.163653 1.94139
thorax -3.82674 0.250816 3.89522
lowerneck 0.791626 12.793 8.64843
upperneck 5.33355 17.761 -11.4939
head 3.26522 8.78006 -4.09499
rclavicle 1.18091e-014 5.56597e-015
rhumerus -54.2146 16.3738 -86.1372
rradius 43.4191
rwrist -12.0045
rhand -12.2345 -31.4844
rfingers 7.12502
rthumb 13.831 -61.0046
lclavicle 1.18091e-014 5.56597e-015
lhumerus -53.94 -14.4681 90.7823
lradius 51.8137
lwrist 3.43462
lhand -19.1063 -8.98059
lfingers 7.12502
lthumb 7.20254 20.8768
rfemur -27.6922 2.27147 20.7953
rtibia 27.3825
rfoot -13.364 -15.3308
rtoes -11.2839
lfemur -29.4921 0.388214 -17.4451
ltibia 66.4521
lfoot -6.57722 -0.612386
ltoes -21.8991
367
root -4.23693 18.0554 -21.6918 14.2258 -24.1953 -0.744324
lowerback -4.53539 0.147871 -3.44767
upperback -6.23525 0.267734 2.01671
thorax -3.94146 0.312246 4.03021
lowerneck 0.777776 12.9858 8.48568
upperneck 5.34813 18.0087 -11.2899
head 3.26368 8.90366 -3.99364
rclavicle 1.37907e-015 -3.97569e-016
rhumerus -53.8852 16.6362 -85.656
rradius 43.7027
rwrist -12.161
rhand -12.4662 -31.1187
rfingers 7.12502
rthumb 13.6078 -60.6539
lclavicle 1.37907e-015 -3.97569e-016
lhumerus -54.3756 -13.9565 90.7968
lradius 51.6841
lwrist 3.45927
lhand -17.6463 -8.37746
lfingers 7.12502
lthumb 8.61166 21.4269
rfemur -27.2794 2.35892 20.9322
rtibia 27.3831
rfoot -13.6276 -15.5778
rtoes -11.229
lfemur -30.556 0.678749 -17.8445
ltibia 66.498
lfoot -6.9919 -0.606377
ltoes -20.4545
368
root -4.31297 18.0663 -21.5962 14.2964 -23.8333 -0.697593
lowerback -4.6908 0.161886 -3.49955
upperback -6.16357 0.292424 1.97912
thorax -3.78141 0.321681 4.02067
lowerneck 0.747426 13.1651 8.39332
upperneck 5.18163 18.2261 -11.1651
head 3.22043 9.0148 -3.93179
rclavicle 1.57816e-014 -9.14409e-015
rhumerus -53.3748 16.6227 -85.2631
rradius 43.9135
rwrist -12.44
rhand -13.7545 -31.0994
rfingers 7.12502
rthumb 12.3658 -60.7137
lclavicle 1.57816e-014 -9.14409e-015
lhumerus -54.5414 -13.6876 90.7077
lradius 51.4484
lwrist 3.61832
lhand -16.0586 -7.75129
lfingers 7.12502
lthumb 10.1436 21.9842
rfemur -26.8641 2.24617 21.0413
rtibia 27.2783
rfoot -13.5169 -15.7757
rtoes -13.305
lfemur -31.6462 0.863592 -18.2923
ltibia 66.3844
lfoot -7.47628 -0.476134
ltoes -20.9601
369
root -4.39111 18.0714 -21.5028 14.4585 -23.3723 -0.735014
lowerback -4.92489 0.278943 -3.27451
upperback -6.14798 0.44783 1.82002
thorax -3.64236 0.383641 3.73052
lowerneck 1.32446 13.015 8.69131
upperneck 4.39978 18.0216 -11.6563
head 2.94551 8.94441 -4.19579
rclavicle 1.39957e-014 3.18055e-015
rhumerus -53.2412 16.3932 -84.9968
rradius 44.6232
rwrist -13.1975
rhand -14.9095 -32.2331
rfingers 7.12502
rthumb 11.2521 -61.9113
lclavicle 1.39957e-014 3.18055e-015
lhumerus -54.8496 -13.8399 90.6632
lradius 51.4934
lwrist 3.68842
lhand -17.226 -8.43018
lfingers 7.12502
lthumb 9.01723 21.3571
rfemur -26.493 2.11959 21.2646
rtibia 27.1892
rfoot -13.9017 -16.0468
rtoes -13.1886
lfemur -32.7797 1.09186 -18.6108
ltibia 66.1163
lfoot -8.30178 -0.545926
ltoes -24.2398
370
root -4.46632 18.0751 -21.4141 14.6261 -22.9448 -0.89994
lowerback -4.86729 0.396564 -3.07748
upperback -6.23575 0.59854 1.7866
thorax -3.77611 0.454465 3.58628
lowerneck 2.50584 12.6993 9.0603
upperneck 2.90046 17.587 -12.5306
head 2.37639 8.79256 -4.66419
rclavicle -7.58519e-014 9.93923e-016
rhumerus -53.0652 16.1284 -84.4562
rradius 45.1306
rwrist -13.5041
rhand -15.1767 -32.162
rfingers 7.12502
rthumb 10.9944 -61.8541
lclavicle -7.58519e-014 9.93923e-016
lhumerus -55.4049 -13.6728 90.6053
lradius 51.7678
lwrist 3.6497
lhand -19.3799 -9.89124
lfingers 7.12502
lthumb 6.93843 19.9751
rfemur -26.1265 2.15116 21.584
rtibia 27.1689
rfoot -14.4551 -16.5276
rtoes -11.8872
lfemur -33.8724 1.31811 -18.7867
ltibia 65.6861
lfoot -9.03325 -0.605698
ltoes -26.0289
371
root -4.53822 18.0801 -21.3192 14.616 -22.6036 -0.824106
lowerback -4.75595 0.416307 -3.29164
upperback -6.27657 0.62751 1.8072
thorax -3.88889 0.481825 3.72816
lowerneck 2.32517 13.0419 8.97016
upperneck 3.15587 18.0405 -12.1332
head 2.48537 9.00981 -4.48376
rclavicle 5.69332e-015 -3.69739e-014
rhumerus -51.9893 15.4422 -83.4406
rradius 44.1453
rwrist -12.6272
rhand -16.2258 -30.4348
rfingers 7.12502
rthumb 9.98234 -60.1781
lclavicle 5.69332e-015 -3.69739e-014
lhumerus -55.8227 -13.3727 90.5811
lradius 51.745
lwrist 3.85783
lhand -16.4398 -7.38138
lfingers 7.12502
lthumb 9.77585 22.3717
rfemur -25.6856 2.13049 21.6408
rtibia 27.187
rfoot -14.4322 -16.9662
rtoes -13.6892
lfemur -34.7301 1.43436 -19.2725
ltibia 65.0723
lfoot -9.15147 -0.0717688
ltoes -24.8453
372
root -4.6122 18.0828 -21.2245 14.5404 -22.3014 -0.726656
lowerback -4.75675 0.478228 -3.49446
upperback -6.21135 0.714584 1.74318
thorax -3.831 0.530959 3.77692
lowerneck 2.64032 13.2146 8.93704
upperneck 2.65686 18.2407 -11.9965
head 2.29203 9.13021 -4.46776
rclavicle -5.30507e-015 5.36719e-015
rhumerus -52.6426 16.011 -83.4943
rradius 46.3753
rwrist -13.6367
rhand -16.9846 -32.9051
rfingers 7.12502
rthumb 9.25017 -62.6822
lclavicle -5.30507e-015 5.36719e-015
lhumerus -55.9798 -13.5395 90.595
lradius 51.4889
lwrist 4.25944
lhand -18.1379 -8.58985
lfingers 7.12502
lthumb 8.1372 21.2335
rfemur -25.203 2.17 21.6617
rtibia 27.236
rfoot -14.2609 -17.484
rtoes -16.9413
lfemur -35.4449 1.56845 -19.7834
ltibia 64.3243
lfoot -9.09715 0.0828975
ltoes -19.4142
